
<svg xmlns="http://www.w3.org/2000/svg" width="1003.002" height="613.494" viewBox="0 0 1003.002 613.494">
  <g id="Group_18" data-name="Group 18" transform="translate(-836.998 -256.278)">
    <g id="Group_17" data-name="Group 17">
      <path id="Path_1" data-name="Path 1" d="M1775.177,739.56h-118.96c12.732-11.7,20.85-29.42,20.85-49.254V675.731c0-42.222,30.694-76.449,68.558-76.449h0c38.814,0,70.279-35.087,70.279-78.368h0c0-43.282-31.465-78.369-70.279-78.369h-11.514c-37.863,0-68.558-34.227-68.558-76.449h0c0-35.232-25.613-63.793-57.209-63.793H1161.333c-35.167,0-63.676,31.79-63.676,71.005h0c0,26.808,13.325,50.143,32.991,62.227h-78.523c-32.748,0-59.295,27.4-59.295,61.191h0c0,40.5-31.813,73.329-71.057,73.329H909.839c-40.229,0-72.841,33.656-72.841,75.171h0c0,41.516,32.612,75.171,72.841,75.171h0c39.243,0,71.057,32.831,71.057,73.33v13.98c0,33.8,26.547,61.191,59.3,61.191H1316.1q3.123.3,6.325.308h452.75A64.823,64.823,0,0,0,1840,804.383h0A64.823,64.823,0,0,0,1775.177,739.56Z" fill="#89b2df" opacity="0.3"/>
      <g id="Group_1" data-name="Group 1">
        <path id="Path_2" data-name="Path 2" d="M1123.543,661.75c-1.8,0-3.274,2.078-3.28,4.65s1.452,4.662,3.257,4.666,3.274-2.077,3.28-4.65S1125.348,661.755,1123.543,661.75Zm0,1.316c.969,0,1.753.488,1.751,1.083s-.788,1.077-1.757,1.074-1.753-.487-1.751-1.082S1122.571,663.064,1123.54,663.066Zm-.016,6.252c-1.366,0-2.472-.751-2.47-1.67s1.112-1.66,2.479-1.657,2.472.751,2.47,1.67S1124.891,669.321,1123.524,669.318Z" fill="#255ca8"/>
        <path id="Path_3" data-name="Path 3" d="M1116.122,672.035a11.3,11.3,0,0,0-1.05,4.72l-.083,34.1a3.747,3.747,0,0,0,3.758,3.738l19.5.048a3.748,3.748,0,0,0,3.777-3.719l.083-34.1a11.31,11.31,0,0,0-1.026-4.726Z" fill="#5f2181"/>
        <path id="Path_4" data-name="Path 4" d="M1116.122,672.035a11.3,11.3,0,0,0-1.05,4.72l-.083,34.1a3.747,3.747,0,0,0,3.758,3.738l19.5.048a3.748,3.748,0,0,0,3.777-3.719l.083-34.1a11.31,11.31,0,0,0-1.026-4.726Z" fill="#5f2181"/>
        <path id="Path_5" data-name="Path 5" d="M1142.109,676.821l-.083,34.105a3.752,3.752,0,0,1-3.777,3.72l-19.5-.048a3.748,3.748,0,0,1-3.758-3.738l.083-34.106a11.3,11.3,0,0,1,1.049-4.718l24.956.062A11.288,11.288,0,0,1,1142.109,676.821Z" fill="#ee5b44"/>
        <path id="Path_6" data-name="Path 6" d="M1120.159,710.871l.084-34.1a11.3,11.3,0,0,1,1.05-4.72l-5.171-.013a11.3,11.3,0,0,0-1.05,4.72l-.083,34.1a3.747,3.747,0,0,0,3.758,3.738l5.17.013A3.749,3.749,0,0,1,1120.159,710.871Z" fill="#f1766c"/>
        <path id="Path_7" data-name="Path 7" d="M1142.109,676.821l-.083,34.105a3.752,3.752,0,0,1-3.777,3.72l-7.973-.02a3.771,3.771,0,0,0,3.816-3.719l.084-34.106a11.228,11.228,0,0,0-1.039-4.723l7.942.02A11.288,11.288,0,0,1,1142.109,676.821Z" fill="#a84131"/>
        <path id="Path_8" data-name="Path 8" d="M1141.081,672.1l-24.961-.061h0a1.984,1.984,0,0,1,2-1.969l20.972.051a1.985,1.985,0,0,1,1.99,1.979Z" fill="#002a4a"/>
        <rect id="Rectangle_2" data-name="Rectangle 2" width="4.238" height="27.035" transform="translate(1114.997 708.363) rotate(-89.859)" fill="#1b4378"/>
      </g>
      <g id="Group_2" data-name="Group 2">
        <path id="Path_9" data-name="Path 9" d="M1091.558,661.056h2.982a3.115,3.115,0,0,0-1.762-.534h-74.7c-3.908,0-7.076,2.809-7.076,6.273v3.985c0,3.464,3.168,6.272,7.076,6.272l73.863-.022Z" fill="#72a1d6"/>
        <path id="Path_10" data-name="Path 10" d="M1049.15,660.537c-3.738,0-6.768,2.686-6.768,6v4.5c0,3.313,3.03,6,6.768,6h46.5V676.03h-.193l-11.821-.992-2.39-8.309s4.612-4.592,4.913-4.711,9.3-.477,9.3-.477l.193,0v-1Z" fill="#255ca8"/>
        <path id="Path_11" data-name="Path 11" d="M1092.636,668.758a9.6,9.6,0,0,1,2.832-7.213H1050.1c-3.433,0-6.216,2.466-6.216,5.509v3.466c0,3.043,2.783,5.51,6.216,5.51h45.366S1092.636,674.875,1092.636,668.758Z" fill="#fcd7a1"/>
        <path id="Path_12" data-name="Path 12" d="M1043.886,667.054v3.466a4.915,4.915,0,0,0,.182,1.322,13,13,0,0,1,10.044-7.543c13.034-2.4,41.356-2.754,41.356-2.754H1050.1C1046.669,661.545,1043.886,664.011,1043.886,667.054Z" fill="#d1eaf4" style="mix-blend-mode: multiply;isolation: isolate"/>
        <path id="Path_13" data-name="Path 13" d="M1090.328,694.095h3.375a3.3,3.3,0,0,0-1.995-.667h-84.544a7.931,7.931,0,0,0-8.009,7.851v4.988a7.931,7.931,0,0,0,8.009,7.851l83.6-.027Z" fill="#4bb494"/>
        <path id="Path_14" data-name="Path 14" d="M1042.33,693.446a7.585,7.585,0,0,0-7.659,7.509v5.636a7.585,7.585,0,0,0,7.659,7.509h52.631v-1.261h-.217l-13.38-1.242-2.7-10.4s5.22-5.747,5.56-5.9,10.525-.6,10.525-.6l.217,0v-1.254Z" fill="#357e68"/>
        <path id="Path_15" data-name="Path 15" d="M1091.548,703.736c0-6.081,3.205-9.029,3.205-9.029h-51.345a6.967,6.967,0,0,0-7.035,6.9v4.338a6.967,6.967,0,0,0,7.035,6.9h51.345S1091.548,711.393,1091.548,703.736Z" fill="#fcd7a1"/>
        <path id="Path_16" data-name="Path 16" d="M1036.373,701.6v4.338a6.779,6.779,0,0,0,.2,1.654,15.048,15.048,0,0,1,11.369-9.441c14.751-3,46.806-3.448,46.806-3.448h-51.345A6.967,6.967,0,0,0,1036.373,701.6Z" fill="#d1eaf4" style="mix-blend-mode: multiply;isolation: isolate"/>
        <path id="Path_17" data-name="Path 17" d="M996.368,677.54h-3.376a3.9,3.9,0,0,1,1.995-.53h84.578c4.425,0,8.012,2.79,8.012,6.23V687.2c0,3.441-3.587,6.23-8.012,6.23l-83.632-.022Z" fill="#ee5b44"/>
        <path id="Path_18" data-name="Path 18" d="M1044.385,677.025c4.232,0,7.662,2.667,7.662,5.958v4.472c0,3.291-3.43,5.958-7.662,5.958H991.733v-1h.218l13.385-.986,2.705-8.253s-5.221-4.56-5.562-4.678-10.528-.474-10.528-.474l-.218,0v-.995Z" fill="#a84131"/>
        <path id="Path_19" data-name="Path 19" d="M995.148,685.19a9.094,9.094,0,0,0-3.207-7.165h51.366c3.886,0,7.037,2.45,7.037,5.473v3.442c0,3.023-3.151,5.473-7.037,5.473H991.941S995.148,691.265,995.148,685.19Z" fill="#fcd7a1"/>
        <path id="Path_20" data-name="Path 20" d="M1050.344,683.5v3.442a4.345,4.345,0,0,1-.2,1.313c-1.732-3.3-5.052-6.471-11.373-7.491-14.757-2.384-46.825-2.737-46.825-2.737h51.366C1047.193,678.025,1050.344,680.475,1050.344,683.5Z" fill="#d1eaf4" style="mix-blend-mode: multiply;isolation: isolate"/>
      </g>
      <rect id="Rectangle_3" data-name="Rectangle 3" width="8.07" height="184.933" transform="translate(1298.885 684.843) rotate(10.732)" fill="#103743"/>
      <path id="Path_21" data-name="Path 21" d="M1535.448,868.887h9.538l-35.543-184.061-7.929,1.5Z" fill="#103743"/>
      <path id="Path_22" data-name="Path 22" d="M1360.833,868.887h9.538l-35.544-184.061-7.929,1.5Z" fill="#103743"/>
      <path id="Path_23" data-name="Path 23" d="M1448.547,868.887l-7.744.093,34.076-183.327,7.929,1.5Z" fill="#103743"/>
      <path id="Path_24" data-name="Path 24" d="M1413.952,436.939c31.4,3.363,72.034,6.91,112.827,76.136,44.584,75.659,21.115,188.676-14.075,220.082s-150.119,70.183-246.732,12.13c0,0-58.336-35.181-28.4-93.569,46.072-89.851,39.562-108.588,60.161-143.8S1347.3,429.8,1413.952,436.939Z" fill="#fcd7a1"/>
      <path id="Path_25" data-name="Path 25" d="M1526.779,513.075c-27.843-47.249-55.611-63.9-80.419-70.778,9.6,9.93,19.324,22.705,29.061,39.23,44.585,75.659,21.115,188.676-14.074,220.081-31.207,27.852-125.123,61.489-213.364,28.261a89.638,89.638,0,0,0,17.989,15.418c96.613,58.053,211.543,19.275,246.732-12.13S1571.363,588.734,1526.779,513.075Z" fill="#fbbf69"/>
      <path id="Path_26" data-name="Path 26" d="M978.332,490.566c-.89,7.019,6.419,12.589,12.92,12.15a16,16,0,0,0,14.332-13.441c1.138-7.643-3.455-13.756-10.56-14.316a8.864,8.864,0,0,0-9.343,11.823c1.432,4.454,5.5,6.115,7.546,4.885a2.035,2.035,0,0,0-.433-3.8,2,2,0,0,0-1.985.855c-1.691-.671-3.3-3.752-2.209-7.077,1.4-4.248,6.766-4.491,10.1-2.51,4.246,2.522,4.913,7.952,3.356,12.279a13.066,13.066,0,0,1-10.954,8.467,10.18,10.18,0,0,1-10.785-9.309A.994.994,0,0,0,978.332,490.566Z" fill="#f1766c"/>
      <g id="Group_4" data-name="Group 4">
        <path id="Path_27" data-name="Path 27" d="M1462.146,256.28c-32.5-.193-58.938,15.834-59.057,35.8-.059,9.982,6.474,19.057,17.083,25.662l-13.363,29.355,27.891-22.716a89.616,89.616,0,0,0,27.017,4.2c32.5.192,58.939-15.835,59.057-35.8S1494.644,256.472,1462.146,256.28Z" fill="#fcd7a1"/>
        <g id="Group_3" data-name="Group 3">
          <path id="Path_28" data-name="Path 28" d="M1439.633,295.867a20.506,20.506,0,1,0,14.6-25.06A20.5,20.5,0,0,0,1439.633,295.867Z" fill="#fabf69"/>
          <path id="Path_29" data-name="Path 29" d="M1470.89,290.985a10.963,10.963,0,1,1-21.2,5.591Z" fill="#ecebeb"/>
        </g>
      </g>
      <g id="Group_6" data-name="Group 6">
        <rect id="Rectangle_4" data-name="Rectangle 4" width="97.147" height="67.408" rx="3.71" transform="matrix(1, -0.008, 0.008, 1, 1122.484, 472.336)" fill="#ee5b44"/>
        <path id="Path_30" data-name="Path 30" d="M1216.9,505l28.97,29.522-35.738-6.671Z" fill="#ee5b44"/>
        <g id="Group_5" data-name="Group 5">
          <path id="Path_31" data-name="Path 31" d="M1190.768,500.841l-8.718-.156s-10.986-8.2-11.322-11.1,1.464-9.036-.24-9.806a5.712,5.712,0,0,0-7.593,2.46c-1.655,2.787-.277,12.96-1.3,13.64-.641.426-5.654.477-9.317.456a6.467,6.467,0,0,0-5.752,3.439l0,.006a3.447,3.447,0,0,0,.834,4.259l1.944,1.626-1.53,2.033a3.446,3.446,0,0,0,.664,4.812l1.535,1.171-1.051,1.2a3.445,3.445,0,0,0,.612,5.095l1.365.957-.205.377a3.446,3.446,0,0,0,1.126,4.517l1.371.908,23.22.412a15.969,15.969,0,0,0,6.348-1.2l8.19-1.2a1.8,1.8,0,0,0,1.536-1.773l.052-20.325A1.8,1.8,0,0,0,1190.768,500.841Z" fill="#fff"/>
        </g>
      </g>
      <path id="Path_32" data-name="Path 32" d="M1313.144,551.938l-8.07,24.211,24.6-9.674Z" fill="#f38779"/>
      <path id="Path_33" data-name="Path 33" d="M1338.5,479.888c-1.64.068-6.132,1.567-12.7,13.942-8.391,15.8-20.654,63.543-20.654,63.543l36.6,13.586,4.7-9.965,7.745-76.712S1338.953,479.87,1338.5,479.888Z" fill="#002034"/>
      <path id="Path_34" data-name="Path 34" d="M1386.887,473.007c-10.467.014-36.366,3.058-48.388,6.885,0,0-8.83,75.643,7.951,133.122,3.757,12.866-3.107,53.337-3.107,53.337l108.466-1.426s-12.85-97.84-8.009-113.643,4.956-70.881,4.956-70.881-.743-.115-24.369-4.185A246.385,246.385,0,0,0,1386.887,473.007Z" fill="#002848"/>
      <path id="Path_35" data-name="Path 35" d="M1399.526,806.747s-2.4,27.6-6.811,35.245.232,20.638.464,22.421,9.288,4.332,23.685,2.8,14.165-4.841,13-10.191-8.824-12.23-9.288-17.326,4.412-23.44,4.412-23.44Z" fill="#f5917d"/>
      <path id="Path_36" data-name="Path 36" d="M1355.581,643.569s-74.874-4.143-91.594,5.948,3.024,30.815,3.024,30.815,60.955,26.412,163,32.282c24.166,1.39,26.249-62.8,21.73-68.108S1355.581,643.569,1355.581,643.569Z" fill="#2d6e58"/>
      <path id="Path_37" data-name="Path 37" d="M1418.66,869.359c14.825-1.575,12.992-8.833,11.8-14.343-.748-3.449-5-7.516-7.536-11.363-1.326,1.052-3.481,2.909-9.919,4.8-6.686,1.969-15.85-1.926-21.69-4.366a71.161,71.161,0,0,0-1.982,19.058C1389.568,864.986,1403.835,870.933,1418.66,869.359Z" fill="#1b4378"/>
      <path id="Path_38" data-name="Path 38" d="M1410.477,696.953c-2.991,22.559-17.8,134.865-17.8,134.865l34.367,4.246s42.262-146.585,40.095-169.006-17.987-24.307-17.987-24.307S1418.4,637.234,1410.477,696.953Z" fill="#357e68"/>
      <path id="Path_39" data-name="Path 39" d="M1377.555,377.575s11.418-12.039,20.6,2.606c0,0,7.075-3.971,12.039,3.1,0,0,12.784-3.847,15.886,15.266,0,0,6.578-1.241,7.447,6.578a19.343,19.343,0,0,1-3.1,13.031s3.7,2.771,2.017,9.96c-1.427,6.113-6.485,7.044-6.485,7.044s-1.365,10.3-5.833,13.4-10.549,1.613-10.549,1.613-1.614,5.585-6.826,5.089-11.667-5.461-17.5-3.227-20.975-.124-20.975-.124-17-7.571-11.915-24.947c0,0-8.936-8.067-1.117-17.748,0,0-5.709-15.141,5.585-24.077S1377.555,377.575,1377.555,377.575Z" fill="#002848"/>
      <path id="Path_40" data-name="Path 40" d="M1379.484,459.308l-2.067,15.335s-4.63,22.092,1.327,26.351,25.331-26.981,25.331-26.981l-2.046-38.856Z" fill="#f5917d"/>
      <path id="Path_41" data-name="Path 41" d="M1402.69,447.749c-4.92,13.253-16.64,21.4-24.959,24.56l1.753-13,22.545-24.152Z" fill="#ee5b44"/>
      <path id="Path_42" data-name="Path 42" d="M1388.263,394.334a20.492,20.492,0,0,0-26.818,16.33,154.817,154.817,0,0,0-1.663,19.674c-.326,17.911,8.946,35.341,17.079,35.341s30.61-11.594,31.423-37.02C1408.787,412.961,1400.949,398.7,1388.263,394.334Z" fill="#f5917d"/>
      <path id="Path_43" data-name="Path 43" d="M1402.292,430.67c0,3.95,2.619,7.153,5.85,7.153s5.85-3.2,5.85-7.153-2.62-7.154-5.85-7.154S1402.292,426.719,1402.292,430.67Z" fill="#f5917d"/>
      <path id="Path_44" data-name="Path 44" d="M1353.029,385.423c-8.4,6.655-11.345,16.767-6.576,22.585s15.446,5.141,23.847-1.514,11.344-16.767,6.575-22.586S1361.43,378.768,1353.029,385.423Z" fill="#002848"/>
      <path id="Path_45" data-name="Path 45" d="M1449.937,488.809c-10.142-3.792-15.1,87.275-16.47,124.758-17.959,1.722-49.262.013-57.056-.57-3.666-.275-12.118-3.36-15.764-3.836-3.736-.488-7.122-.741-8.959-.423-.674.117-19.393,7.746-20.995,9.42-1.986,2.074-7.355,7.308-6.449,9.572s10.326-6.306,10.326-6.306l4.6-2.574c-5.73,5.579-16.661,12.927-15.087,15.6,1.536,2.609,11.4-4.848,18.423-9.93-6.027,5.426-13.515,15.135-11.79,16.649,1.55,1.36,10.068-9.881,19.171-13.118,3.374-1.2,6.736,2.123,9.39,2.524,1.95.295,4.961.922,6.874.382l9.857-2.786c3.357.3,3.442,2.282,6.832,3,3.936.835,10.4,1.714,15.407,2.935,28.866,7.029,38.494,10.293,47.332,10.288C1472.352,644.382,1473.905,497.77,1449.937,488.809Z" fill="#f5917d"/>
      <path id="Path_46" data-name="Path 46" d="M1469.183,574.3c1.9-38.394,1.622-85.717-19.975-93.791-8.521-3.186-23.543,15.969-20.841,94.571C1439.9,576.033,1456.822,576.8,1469.183,574.3Z" fill="#002848"/>
      <path id="Path_47" data-name="Path 47" d="M1348.36,557.807h2.2l33.094,81.05-2.279-.346Z" fill="#f38779"/>
      <path id="Path_48" data-name="Path 48" d="M1299.031,830.357s3,9.582-2.371,15.918-27.681,12.553-30.609,15.985-2.708,6.355-2.708,6.355l62.623-1.718-.683-18.848-2.883-13.544Z" fill="#f5917d"/>
      <path id="Path_49" data-name="Path 49" d="M1292.765,849.435s16.091,6.486,23.864,2.646,7.538-4.9,9.787-3.473,3.054,19.1,3.054,19.1l-70.417,2.062c-4.9-.113-7.378-3.709-3.4-6.788a57.284,57.284,0,0,1,7.677-4.549C1268.843,855.286,1292.765,849.435,1292.765,849.435Z" fill="#1b4378"/>
      <path id="Path_50" data-name="Path 50" d="M1301.405,661.256c-4.84-10.151-15.848-23.367-35.217-15.407-18.473,7.592-23.431,26.251-17.6,45.357s44.2,131.424,45.535,146.867l30.636.2s-5.567-88.935-6.933-110.432C1316.509,707.159,1309.781,678.825,1301.405,661.256Z" fill="#357e68"/>
      <path id="Path_51" data-name="Path 51" d="M1251.67,557.807h102.409a6.678,6.678,0,0,1,6.178,4.145l31.532,76.906h56.459a2.857,2.857,0,0,1,2.858,2.856h0a2.858,2.858,0,0,1-2.858,2.857H1287.562a11.217,11.217,0,0,1-10.233-6.623l-31.75-70.728A6.677,6.677,0,0,1,1251.67,557.807Z" fill="#ee5b44"/>
      <path id="Path_52" data-name="Path 52" d="M1306.807,602.59c.692,3.455,3.7,5.765,6.73,5.16s4.917-3.9,4.225-7.35-3.7-5.764-6.73-5.159S1306.115,599.136,1306.807,602.59Z" fill="#fff"/>
      <ellipse id="Ellipse_1" data-name="Ellipse 1" cx="50.566" cy="50.671" rx="50.566" ry="50.671" transform="translate(1544.154 347.678)" fill="#89b2df" opacity="0.3"/>
      <g id="Group_14" data-name="Group 14">
        <g id="Group_13" data-name="Group 13">
          <g id="Group_7" data-name="Group 7">
            <rect id="Rectangle_5" data-name="Rectangle 5" width="18.641" height="1.435" transform="translate(1540.339 397.352)" fill="#103743"/>
          </g>
          <g id="Group_8" data-name="Group 8">
            <rect id="Rectangle_6" data-name="Rectangle 6" width="18.641" height="1.435" transform="translate(1630.575 397.352)" fill="#103743"/>
          </g>
          <g id="Group_9" data-name="Group 9">
            <rect id="Rectangle_7" data-name="Rectangle 7" width="1.432" height="18.68" transform="translate(1593.926 344.237)" fill="#103743"/>
          </g>
          <g id="Group_10" data-name="Group 10">
            <rect id="Rectangle_8" data-name="Rectangle 8" width="1.432" height="18.68" transform="translate(1593.926 434.3)" fill="#103743"/>
          </g>
          <path id="Path_53" data-name="Path 53" d="M1596.263,398.349a1.543,1.543,0,1,1-1.543-1.546A1.545,1.545,0,0,1,1596.263,398.349Z" fill="#103743"/>
          <g id="Group_11" data-name="Group 11">
            <path id="Path_54" data-name="Path 54" d="M1594.72,399.041a.689.689,0,0,1-.488-.2l-27.727-27.785a.69.69,0,0,1,.976-.977l27.727,27.785a.691.691,0,0,1-.488,1.18Z" fill="#103743"/>
          </g>
          <g id="Group_12" data-name="Group 12">
            <path id="Path_55" data-name="Path 55" d="M1603.635,426.429a.5.5,0,0,1-.251-.291l-8.962-27.128a.5.5,0,1,1,.953-.316l8.962,27.128a.5.5,0,0,1-.319.635A.5.5,0,0,1,1603.635,426.429Z" fill="#103743"/>
          </g>
        </g>
      </g>
      <path id="Path_56" data-name="Path 56" d="M1675.312,512.643l4.513-7.331-3.624-1.47a1.548,1.548,0,0,1-.854-2.018h0a1.548,1.548,0,0,1,2.018-.854l4.18,1.7,4.035-6.583-3.871-1.57a1.551,1.551,0,0,1-.854-2.019h0a1.55,1.55,0,0,1,2.019-.853l4.426,1.795,4.687-7.539a1.548,1.548,0,0,1,1.9-.618l.676.274a1.55,1.55,0,0,1,.739,2.246l-4.359,7.113,6.419,2.6,4.686-7.539a1.55,1.55,0,0,1,1.9-.618l.738.3a1.55,1.55,0,0,1,.739,2.246l-4.358,7.114,3.624,1.47a1.55,1.55,0,0,1,.854,2.018h0a1.551,1.551,0,0,1-2.019.854l-4.18-1.7-3.973,6.608,3.871,1.57a1.549,1.549,0,0,1,.854,2.018h0a1.55,1.55,0,0,1-2.019.854l-4.426-1.8-4.787,7.774a1.55,1.55,0,0,1-1.9.624l-.79-.321a1.548,1.548,0,0,1-.737-2.248l4.513-7.331-6.418-2.6-4.787,7.775a1.551,1.551,0,0,1-1.9.624l-.79-.321A1.549,1.549,0,0,1,1675.312,512.643Zm16.354-5.874,4.035-6.583-6.418-2.6-4.035,6.583Z" fill="#002848"/>
      <path id="Path_57" data-name="Path 57" d="M1279.364,313.237l4.615-10.416-5.964-9.706a1.565,1.565,0,0,1,1.495-2.376l11.332,1.17,7.388-8.672a1.566,1.566,0,0,1,2.722.687l2.389,11.139,10.53,4.347a1.565,1.565,0,0,1,.187,2.8l-9.855,5.714-.88,11.358a1.565,1.565,0,0,1-2.606,1.044l-8.48-7.607-11.074,2.673A1.566,1.566,0,0,1,1279.364,313.237Z" fill="#f1766c"/>
      <path id="Path_58" data-name="Path 58" d="M1613.652,313.226l3.462-7.812-4.474-7.281a1.174,1.174,0,0,1,1.121-1.782l8.5.877,5.542-6.5a1.174,1.174,0,0,1,2.042.515l1.792,8.355,7.9,3.261a1.174,1.174,0,0,1,.141,2.1l-7.393,4.286-.66,8.52a1.174,1.174,0,0,1-1.955.783l-6.36-5.706L1615,314.844A1.175,1.175,0,0,1,1613.652,313.226Z" fill="#fbbf69"/>
      <path id="Path_59" data-name="Path 59" d="M1579.294,536.444l-.548-6.472-5.643-3.217a.892.892,0,0,1,.1-1.6l5.985-2.522,1.317-6.36a.893.893,0,0,1,1.549-.4l4.247,4.913,6.456-.713a.893.893,0,0,1,.862,1.349l-3.36,5.558,2.673,5.919a.892.892,0,0,1-1.016,1.236l-6.325-1.478-4.8,4.372A.893.893,0,0,1,1579.294,536.444Z" fill="#f1766c"/>
      <path id="Path_60" data-name="Path 60" d="M1061.552,441.3l2.539-5.729-3.281-5.339a.861.861,0,0,1,.822-1.307l6.233.644,4.064-4.77a.861.861,0,0,1,1.5.378l1.314,6.127,5.792,2.391a.861.861,0,0,1,.1,1.541l-5.421,3.143-.484,6.247a.862.862,0,0,1-1.434.575l-4.664-4.185-6.091,1.47A.861.861,0,0,1,1061.552,441.3Z" fill="#fbbf69"/>
      <path id="Path_61" data-name="Path 61" d="M1258.021,430.931l2.538-5.729-3.281-5.339a.862.862,0,0,1,.822-1.308l6.234.644,4.064-4.77a.861.861,0,0,1,1.5.378l1.314,6.127,5.792,2.391a.861.861,0,0,1,.1,1.541l-5.421,3.143-.484,6.248a.861.861,0,0,1-1.433.574l-4.665-4.184-6.091,1.47A.861.861,0,0,1,1258.021,430.931Z" fill="#4bb494"/>
      <path id="Path_62" data-name="Path 62" d="M1160.2,338.12l10.059-1.459,4.136,15.926,14.971-.32,5.044,11.412,5.777-2.553-6.745-15.263-14.187.3-4.3-16.567-15.136,2.2Z" fill="#4bb494"/>
      <path id="Path_63" data-name="Path 63" d="M1138.634,604.887l7.612-6.735,12.191,11.051,12.344-8.476,10.475,6.778,3.431-5.3-14.01-9.066-11.7,8.032-12.682-11.5-11.454,10.135Z" fill="#002848"/>
      <path id="Path_64" data-name="Path 64" d="M1019.078,613.219l6.388-10.375-5.13-2.081a2.193,2.193,0,0,1-1.208-2.856h0a2.192,2.192,0,0,1,2.857-1.208l5.915,2.4,5.711-9.317-5.479-2.222a2.193,2.193,0,0,1-1.208-2.856h0a2.194,2.194,0,0,1,2.857-1.209l6.265,2.541,6.632-10.67a2.194,2.194,0,0,1,2.687-.874l.957.388a2.194,2.194,0,0,1,1.046,3.178l-6.169,10.068,9.084,3.684,6.632-10.67a2.193,2.193,0,0,1,2.687-.875l1.044.424a2.194,2.194,0,0,1,1.046,3.178l-6.169,10.068,5.13,2.08a2.194,2.194,0,0,1,1.208,2.857h0a2.194,2.194,0,0,1-2.857,1.208l-5.915-2.4-5.624,9.353,5.479,2.222a2.191,2.191,0,0,1,1.208,2.856h0a2.193,2.193,0,0,1-2.856,1.209l-6.265-2.541-6.775,11a2.194,2.194,0,0,1-2.692.883l-1.118-.454a2.193,2.193,0,0,1-1.044-3.182l6.388-10.375-9.084-3.684-6.774,11a2.194,2.194,0,0,1-2.692.883l-1.119-.454A2.193,2.193,0,0,1,1019.078,613.219Zm23.147-8.313,5.71-9.317-9.083-3.683-5.711,9.317Z" fill="#4bb494"/>
      <g id="Group_15" data-name="Group 15">
        <path id="Path_65" data-name="Path 65" d="M1599.355,744.474c-.649-5.737-1.421-11.606-4.084-16.727-3.239-6.226-8.928-10.718-13.9-15.667a86.923,86.923,0,0,1-20.724-33.032c-3.317-9.584-4.97-19.795-9.541-28.846-2.791-5.526-6.6-10.467-9.767-15.784-7.494-12.568-11.572-27.421-21.733-37.94a45.608,45.608,0,0,0,10.3,36.075c2.5,2.919,5.405,5.55,7.312,8.89,3.461,6.064,3.146,13.462,3.551,20.436a89.729,89.729,0,0,0,10.731,37.557c6.666,12.242,16.289,23.143,19.853,36.624,2.671,10.1,1.878,21.434,7.572,30.189a7.72,7.72,0,0,1,1.475,3.024,6.633,6.633,0,0,1-.112,1.9q-.192,1.219-.383,2.44c-1.295,8.268-2.634,18.788,4.471,24.977,4.924,4.288,11.262,4.384,14.8-1.312,3.561-5.736,3.245-14.131,2.981-20.587C1601.716,765.94,1600.565,755.16,1599.355,744.474Z" fill="#357e68"/>
        <path id="Path_66" data-name="Path 66" d="M1612.153,737.824c-2.765-9.571-7.055-18.687-9.2-28.415-2.085-9.436-2.1-19.192-2.108-28.856q-.012-15.885-.023-31.771c0-6.593-.012-13.222-1.1-19.724-2.345-13.99-9.616-26.926-10.847-41.059-.533-6.111.085-12.288-.587-18.385a28.918,28.918,0,0,0-2.89-10.129,4.511,4.511,0,0,0-8.1.227c-3.532,7.652-5.771,15.923-4.344,24.122.855,4.918,2.985,9.5,4.576,14.235,7.082,21.068,3.322,44.39,8.8,65.932,1.654,6.5,4.155,12.879,4.446,19.583.7,16.045-11.287,30.7-10.188,46.725.9,13.137,10.346,24.009,14.31,36.563,2.22,7.028,2.7,14.53,5.072,21.506,1.848,5.42,6.143,12,12.816,10.356,6.334-1.561,4.42-6.732,4.137-11.671C1615.966,770.356,1616.867,754.146,1612.153,737.824Z" fill="#2d6e58"/>
        <path id="Path_67" data-name="Path 67" d="M1626.652,746.594c-.279-4.973-1.118-9.973-.423-14.906.588-4.165,2.246-8.09,3.43-12.126,2.219-7.563,2.769-15.5,3.306-23.366q1.466-21.444,2.93-42.888c1.519-22.222,3.045-44.507,7.2-66.389,1.153-6.076,2.449-12.659-.282-18.205-.575-1.169-1.708-2.409-2.95-2.02-.884.277-1.318,1.251-1.639,2.123-9.082,24.683-12.515,51.257-22.653,75.524-2.428,5.813-5.253,11.532-6.51,17.707-1.51,7.415-.681,15.074-.486,22.638A106.782,106.782,0,0,1,1604.8,716.9c-1.567,5.456-3.666,10.79-4.525,16.4-1.071,7-.172,14.127.5,21.175a325.574,325.574,0,0,1,1.307,40.789c-.247,8,6.505,7.789,10.978,2.875,3.128-3.437,3.1-7.21,4.171-11.488C1620.748,772.607,1627.506,761.822,1626.652,746.594Z" fill="#357e68"/>
        <path id="Path_68" data-name="Path 68" d="M1584.467,768.284c-5.971-9.593-17.865-15.047-21.681-25.687-.971-2.707-1.35-5.619-2.537-8.239-2.635-5.819-8.625-9.108-14.514-11.785a1.246,1.246,0,0,0-1.76,1.121h0a4.254,4.254,0,0,0,1.844,3.593,23.889,23.889,0,0,1,9.52,12.984c1.819,6.236,1.03,13.072,3.291,19.16,1.9,5.112,5.806,9.29,7.641,14.424,1.678,4.694,1.5,9.822,2.291,14.744s2.975,10.146,7.495,12.229C1592.412,808.364,1588.324,774.482,1584.467,768.284Z" fill="#2d6e58"/>
        <path id="Path_69" data-name="Path 69" d="M1652.489,765.118c-.254,4.639.455,9.5-1.36,13.775-1.161,2.735-3.25,4.946-4.964,7.371-6.021,8.516-8.2,20.581-17.454,25.375a3.151,3.151,0,0,1-1.967.473,3.016,3.016,0,0,1-1.95-1.978c-2.268-5.284.276-11.236,1.783-16.786a4.121,4.121,0,0,0,.022-2.947c-.509-.982-1.67-1.408-2.462-2.179-1.581-1.537-1.432-4.081-1.118-6.266a142.051,142.051,0,0,1,3.3-16.2,28.378,28.378,0,0,1,3.468-8.666c1.917-2.856,4.7-4.989,7.308-7.231a86.606,86.606,0,0,0,25.281-37.319c1.069-3.114,2.022-6.4,4.23-8.84s6.146-3.694,8.835-1.8c1.914,1.346-5.925,13.955-6.838,15.467-2.612,4.32-2.647,8.08-4.123,12.878C1660.863,742,1653.181,752.522,1652.489,765.118Z" fill="#357e68"/>
        <path id="Path_70" data-name="Path 70" d="M1643.372,770.482c1.711-4.425,3.437-8.907,4-13.618.627-5.238-.205-10.594.69-15.792,1.15-6.683,5.046-12.561,6.975-19.061,1.393-4.7,1.735-9.627,2.572-14.452,2.392-13.8,8.879-27.279,7.017-41.159-.4-3.019-1.767-6.538-4.763-7.052-2.713-.466-5.182,2.014-5.887,4.679s-.179,5.477.014,8.227a33.967,33.967,0,0,1-6.083,21.783c-4.262,6.029-10.444,10.569-14.279,16.88-4.7,7.74-5.343,17.19-7.744,25.927-4.773,17.377-16.744,32.535-18.926,50.425-.869,7.118.8,15.771,7.372,18.615C1633.332,814.109,1639.068,781.613,1643.372,770.482Z" fill="#2d6e58"/>
        <path id="Path_71" data-name="Path 71" d="M1610.156,792.535h-43.607a4.623,4.623,0,0,0-4.491,5.7l15.9,67.031a4.617,4.617,0,0,0,4.491,3.556h52.382a4.619,4.619,0,0,0,4.492-3.556l15.9-67.031a4.624,4.624,0,0,0-4.492-5.7Z" fill="#ee5b44"/>
      </g>
      <g id="Group_16" data-name="Group 16">
        <rect id="Rectangle_9" data-name="Rectangle 9" width="211.966" height="10.948" transform="translate(960.686 714.081)" fill="#103743"/>
        <rect id="Rectangle_10" data-name="Rectangle 10" width="138.583" height="9.579" transform="translate(964.518 777.588)" fill="#103743"/>
        <rect id="Rectangle_11" data-name="Rectangle 11" width="8.941" height="149.314" transform="translate(1142.909 719.555)" fill="#103743"/>
        <rect id="Rectangle_12" data-name="Rectangle 12" width="8.941" height="149.314" transform="translate(1016.46 719.555)" fill="#103743"/>
        <path id="Path_72" data-name="Path 72" d="M1079.313,868.868l48.165-148.03-7.9-2.568-49,150.6Z" fill="#103743"/>
        <path id="Path_73" data-name="Path 73" d="M943.825,868.868l41.2-148.353-8-2.222L935.208,868.868Z" fill="#103743"/>
      </g>
      <path id="Path_74" data-name="Path 74" d="M1594.72,339.171a59.179,59.179,0,1,0,59.055,59.178A59.117,59.117,0,0,0,1594.72,339.171Zm3.167,109.75a50.671,50.671,0,1,1,47.3-53.745A50.6,50.6,0,0,1,1597.887,448.921Z" fill="#103743"/>
    </g>
  </g>
</svg>
